<?xml version="1.0" encoding="utf-8"?><svg xmlns="http://www.w3.org/2000/svg" xmlns:xlink="http://www.w3.org/1999/xlink"><symbol viewBox="0 0 576 512" id="amex" xmlns="http://www.w3.org/2000/svg"><path d="M576 255.4c-37.9-.2-44.2-.9-54.5 5v-5c-45.3 0-53.5-1.7-64.9 5.2v-5.2h-78.2v5.1c-11.4-6.5-21.4-5.1-75.7-5.1v5.6c-6.3-3.7-14.5-5.6-24.3-5.6h-58c-3.5 3.8-12.5 13.7-15.7 17.2-12.7-14.1-10.5-11.6-15.5-17.2h-83.1v92.3h82c3.3-3.5 12.9-13.9 16.1-17.4 12.7 14.3 10.3 11.7 15.4 17.4h48.9c0-14.7.1-8.3.1-23 11.5.2 24.3-.2 34.3-6.2 0 13.9-.1 17.1-.1 29.2h39.6c0-18.5.1-7.4.1-25.3 6.2 0 7.7 0 9.4.1.1 1.3 0 0 0 25.2 152.8 0 145.9 1.1 156.7-4.5v4.5c34.8 0 54.8 2.2 67.5-6.1V432c0 26.5-21.5 48-48 48H48c-26.5 0-48-21.5-48-48V228.3h26.6c4.2-10.1 2.2-5.3 6.4-15.3h19.2c4.2 10 2.2 5.2 6.4 15.3h52.9v-11.4c2.2 5 1.1 2.5 5.1 11.4h29.5c2.4-5.5 2.6-5.8 5.1-11.4v11.4h135.5v-25.1c6.4 0 8-.1 9.8.2 0 0-.2 10.9.1 24.8h66.5v-8.9c7.4 5.9 17.4 8.9 29.7 8.9h26.8c4.2-10.1 2.2-5.3 6.4-15.3h19c6.5 15 .2.5 6.6 15.3h52.8v-21.9c11.8 19.7 7.8 12.9 13.2 21.9h41.6v-92h-39.9v18.4c-12.2-20.2-6.3-10.4-11.2-18.4h-43.3v20.6c-6.2-14.6-4.6-10.8-8.8-20.6h-32.4c-.4 0-2.3.2-2.3-.3h-27.6c-12.8 0-23.1 3.2-30.7 9.3v-9.3h-39.9v5.3c-10.8-6.1-20.7-5.1-64.4-5.3-.1 0-11.6-.1-11.6 0h-103c-2.5 6.1-6.8 16.4-12.6 30-2.8-6-11-23.8-13.9-30h-46V157c-7.4-17.4-4.7-11-9-21.1H22.9c-3.4 7.9-13.7 32-23.1 53.9V80c0-26.5 21.5-48 48-48h480c26.5 0 48 21.5 48 48v175.4zm-186.6-80.6c-.3.2-1.4 2.2-1.4 7.6 0 6 .9 7.7 1.1 7.9.2.1 1.1.5 3.4.5l7.3-16.9c-1.1 0-2.1-.1-3.1-.1-5.6 0-7 .7-7.3 1zm-19.9 130.9c9.2 3.3 11 9.5 11 18.4l-.1 13.8h-16.6l.1-11.5c0-11.8-3.8-13.8-14.8-13.8h-17.6l-.1 25.3h-16.6l.1-69.3h39.4c13 0 27.1 2.3 27.1 18.7-.1 7.6-4.2 15.3-11.9 18.4zm-6.3-15.4c0-6.4-5.6-7.4-10.7-7.4h-21v15.6h20.7c5.6 0 11-1.3 11-8.2zm181.7-7.1H575v-14.6h-32.9c-12.8 0-23.8 6.6-23.8 20.7 0 33 42.7 12.8 42.7 27.4 0 5.1-4.3 6.4-8.4 6.4h-32l-.1 14.8h32c8.4 0 17.6-1.8 22.5-8.9v-25.8c-10.5-13.8-39.3-1.3-39.3-13.5 0-5.8 4.6-6.5 9.2-6.5zm-99.2-.3v-14.3h-55.2l-.1 69.3h55.2l.1-14.3-38.6-.3v-13.8H445v-14.1h-37.8v-12.5h38.5zm42.2 40.1h-32.2l-.1 14.8h32.2c14.8 0 26.2-5.6 26.2-22 0-33.2-42.9-11.2-42.9-26.3 0-5.6 4.9-6.4 9.2-6.4h30.4v-14.6h-33.2c-12.8 0-23.5 6.6-23.5 20.7 0 33 42.7 12.5 42.7 27.4-.1 5.4-4.7 6.4-8.8 6.4zm-78.1-158.7c-17.4-.3-33.2-4.1-33.2 19.7 0 11.8 2.8 19.9 16.1 19.9h7.4l23.5-54.5h24.8l27.9 65.4v-65.4h25.3l29.1 48.1v-48.1h16.9v69H524l-31.2-51.9v51.9h-33.7l-6.6-15.3h-34.3l-6.4 15.3h-19.2c-22.8 0-33-11.8-33-34 0-23.3 10.5-35.3 34-35.3h16.1v15.2zm14.3 24.5h22.8l-11.2-27.6-11.6 27.6zm-72.6-39.6h-16.9v69.3h16.9v-69.3zm-38.1 37.3c9.5 3.3 11 9.2 11 18.4v13.5h-16.6c-.3-14.8 3.6-25.1-14.8-25.1h-18v25.1h-16.4v-69.3l39.1.3c13.3 0 27.4 2 27.4 18.4.1 8-4.3 15.7-11.7 18.7zm-6.7-15.3c0-6.4-5.6-7.4-10.7-7.4h-21v15.3h20.7c5.7 0 11-1.3 11-7.9zm-59.5-7.4v-14.6h-55.5v69.3h55.5v-14.3h-38.9v-13.8h37.8v-14.1h-37.8v-12.5h38.9zm-84.6 54.7v-54.2l-24 54.2H124l-24-54.2v54.2H66.2l-6.4-15.3H25.3l-6.4 15.3H1l29.7-69.3h24.5l28.1 65.7v-65.7h27.1l21.7 47 19.7-47h27.6v69.3h-16.8zM53.9 188.8l-11.5-27.6-11.2 27.6h22.7zm253 102.5c0 27.9-30.4 23.3-49.3 23.3l-.1 23.3h-32.2l-20.4-23-21.3 23h-65.4l.1-69.3h66.5l20.5 22.8 21-22.8H279c15.6 0 27.9 5.4 27.9 22.7zm-112.7 11.8l-17.9-20.2h-41.7v12.5h36.3v14.1h-36.3v13.8h40.6l19-20.2zM241 276l-25.3 27.4 25.3 28.1V276zm48.3 15.3c0-6.1-4.6-8.4-10.2-8.4h-21.5v17.6h21.2c5.9 0 10.5-2.8 10.5-9.2z"/></symbol><symbol viewBox="0 0 511.634 511.634" id="calendar" xmlns="http://www.w3.org/2000/svg"><path d="M482.513 83.942c-7.225-7.233-15.797-10.85-25.694-10.85h-36.541v-27.41c0-12.56-4.477-23.315-13.422-32.261C397.906 4.475 387.157 0 374.591 0h-18.268c-12.565 0-23.318 4.475-32.264 13.422-8.949 8.945-13.422 19.701-13.422 32.261v27.41h-109.63v-27.41c0-12.56-4.475-23.315-13.422-32.261C178.64 4.475 167.886 0 155.321 0H137.05c-12.562 0-23.317 4.475-32.264 13.422-8.945 8.945-13.421 19.701-13.421 32.261v27.41H54.823c-9.9 0-18.464 3.617-25.697 10.85-7.233 7.232-10.85 15.8-10.85 25.697v365.453c0 9.89 3.617 18.456 10.85 25.693 7.232 7.231 15.796 10.849 25.697 10.849h401.989c9.897 0 18.47-3.617 25.694-10.849 7.234-7.234 10.852-15.804 10.852-25.693V109.639c-.001-9.9-3.615-18.464-10.845-25.697zM137.047 475.088H54.823v-82.23h82.224v82.23zm0-100.498H54.823v-91.358h82.224v91.358zm0-109.639H54.823v-82.223h82.224v82.223zm-6.42-130.618c-1.809-1.809-2.712-3.946-2.712-6.423V45.686c0-2.474.903-4.617 2.712-6.423 1.809-1.809 3.946-2.712 6.423-2.712h18.271c2.474 0 4.617.903 6.423 2.712 1.809 1.807 2.714 3.949 2.714 6.423v82.224c0 2.478-.909 4.615-2.714 6.423-1.807 1.809-3.946 2.712-6.423 2.712H137.05c-2.474.001-4.614-.903-6.423-2.712zm116.056 340.755h-91.365v-82.23h91.365v82.23zm0-100.498h-91.365v-91.358h91.365v91.358zm0-109.639h-91.365v-82.223h91.365v82.223zm109.64 210.137h-91.364v-82.23h91.364v82.23zm0-100.498h-91.364v-91.358h91.364v91.358zm0-109.639h-91.364v-82.223h91.364v82.223zm-6.427-130.618c-1.807-1.809-2.707-3.946-2.707-6.423V45.686c0-2.474.9-4.617 2.707-6.423 1.808-1.809 3.949-2.712 6.427-2.712h18.268c2.478 0 4.617.903 6.427 2.712 1.808 1.807 2.707 3.949 2.707 6.423v82.224c0 2.478-.903 4.615-2.707 6.423-1.807 1.809-3.949 2.712-6.427 2.712h-18.268c-2.477.001-4.626-.903-6.427-2.712zm106.916 340.755h-82.228v-82.23h82.228v82.23zm0-100.498h-82.228v-91.358h82.228v91.358zm0-109.639h-82.228v-82.223h82.228v82.223z"/></symbol><symbol viewBox="0 0 576 512" id="discover" xmlns="http://www.w3.org/2000/svg"><path d="M83 212.1c0 7.9-3.2 15.5-8.9 20.7-4.9 4.4-11.6 6.4-21.9 6.4H48V185h4.2c10.3 0 16.7 1.7 21.9 6.6 5.7 5 8.9 12.6 8.9 20.5zM504.8 184h-4.9v24.9h4.7c10.3 0 15.8-4.4 15.8-12.8 0-7.9-5.5-12.1-15.6-12.1zM576 80v352c0 26.5-21.5 48-48 48H48c-26.5 0-48-21.5-48-48V80c0-26.5 21.5-48 48-48h480c26.5 0 48 21.5 48 48zM428 253h45.3v-13.8H444V217h28.3v-13.8H444V185h29.3v-14H428v82zm-86.2-82l35 84.2h8.6l35.5-84.2h-17.5l-22.2 55.2-21.9-55.2h-17.5zm-83 41.6c0 24.6 19.9 44.6 44.6 44.6 24.6 0 44.6-19.9 44.6-44.6 0-24.6-19.9-44.6-44.6-44.6-24.6 0-44.6 19.9-44.6 44.6zm-68-.5c0 32.5 33.6 52.5 63.3 38.2v-19c-19.3 19.3-46.8 5.8-46.8-19.2 0-23.7 26.7-39.1 46.8-19v-19c-30.2-15-63.3 6.8-63.3 38zm-33.9 28.3c-7.6 0-13.8-3.7-17.5-10.8l-10.3 9.9c17.8 26.1 56.6 18.2 56.6-11.3 0-13.1-5.4-19-23.6-25.6-9.6-3.4-12.3-5.9-12.3-10.3 0-8.7 14.5-14.1 24.9-2.5l8.4-10.8c-19.1-17.1-49.7-8.9-49.7 14.3 0 11.3 5.2 17.2 20.2 22.7 25.7 9.1 14.7 24.4 3.3 24.4zm-57.4-28.3c0-24.1-18-41.1-44.1-41.1H32v82h23.4c30.9 0 44.1-22.4 44.1-40.9zm23.4-41.1h-16v82h16v-82zM544 288c-33.3 20.8-226.4 124.4-416 160h401c8.2 0 15-6.8 15-15V288zm0-35l-25.9-34.5c12.1-2.5 18.7-10.6 18.7-23.2 0-28.5-30.3-24.4-52.9-24.4v82h16v-32.8h2.2l22.2 32.8H544z"/></symbol><symbol viewBox="0 0 612 612" id="down-arrow" xmlns="http://www.w3.org/2000/svg"><path d="M604.501 134.782c-9.999-10.05-26.222-10.05-36.221 0L306.014 422.558 43.721 134.782c-9.999-10.05-26.223-10.05-36.222 0s-9.999 26.35 0 36.399l279.103 306.241c5.331 5.357 12.422 7.652 19.386 7.296 6.988.356 14.055-1.939 19.386-7.296l279.128-306.268c9.998-10.048 9.998-26.322-.001-36.372z"/></symbol><symbol viewBox="0 0 546.773 546.773" id="fb" xmlns="http://www.w3.org/2000/svg"><path d="M382.1 0h-56.953c-43.574 0-74.872 10.343-93.893 31.022-19.027 20.686-28.532 51.151-28.532 91.408v38.373c0 10.141-8.219 18.36-18.36 18.36H164.68c-10.141 0-18.36 8.219-18.36 18.36v57.503c0 10.141 8.219 18.36 18.36 18.36h19.682c10.141 0 18.36 8.219 18.36 18.36v236.666c0 10.141 8.219 18.36 18.36 18.36h76.414c10.141 0 18.36-8.22 18.36-18.36V291.747c0-10.142 8.22-18.36 18.36-18.36h38.592c10.142 0 19.224-8.176 20.289-18.256l6.095-57.712c1.065-10.085-6.291-18.256-16.433-18.256H334.21c-10.141 0-18.36-8.219-18.36-18.36v-28.752c0-7.075.331-12.552.997-16.426.661-3.868 2.154-7.681 4.48-11.445 2.319-3.757 6.083-6.358 11.279-7.797 5.195-1.438 12.111-2.16 20.734-2.16h28.752c10.141 0 18.359-8.219 18.359-18.36V18.36C400.459 8.219 392.24 0 382.1 0z"/></symbol><symbol viewBox="0 0 576 512" id="paypal" xmlns="http://www.w3.org/2000/svg"><path d="M186.3 258.2c0 12.2-9.7 21.5-22 21.5-9.2 0-16-5.2-16-15 0-12.2 9.5-22 21.7-22 9.3 0 16.3 5.7 16.3 15.5zM80.5 209.7h-4.7c-1.5 0-3 1-3.2 2.7l-4.3 26.7 8.2-.3c11 0 19.5-1.5 21.5-14.2 2.3-13.4-6.2-14.9-17.5-14.9zm284 0H360c-1.8 0-3 1-3.2 2.7l-4.2 26.7 8-.3c13 0 22-3 22-18-.1-10.6-9.6-11.1-18.1-11.1zM576 80v352c0 26.5-21.5 48-48 48H48c-26.5 0-48-21.5-48-48V80c0-26.5 21.5-48 48-48h480c26.5 0 48 21.5 48 48zM128.3 215.4c0-21-16.2-28-34.7-28h-40c-2.5 0-5 2-5.2 4.7L32 294.2c-.3 2 1.2 4 3.2 4h19c2.7 0 5.2-2.9 5.5-5.7l4.5-26.6c1-7.2 13.2-4.7 18-4.7 28.6 0 46.1-17 46.1-45.8zm84.2 8.8h-19c-3.8 0-4 5.5-4.2 8.2-5.8-8.5-14.2-10-23.7-10-24.5 0-43.2 21.5-43.2 45.2 0 19.5 12.2 32.2 31.7 32.2 9 0 20.2-4.9 26.5-11.9-.5 1.5-1 4.7-1 6.2 0 2.3 1 4 3.2 4H200c2.7 0 5-2.9 5.5-5.7l10.2-64.3c.3-1.9-1.2-3.9-3.2-3.9zm40.5 97.9l63.7-92.6c.5-.5.5-1 .5-1.7 0-1.7-1.5-3.5-3.2-3.5h-19.2c-1.7 0-3.5 1-4.5 2.5l-26.5 39-11-37.5c-.8-2.2-3-4-5.5-4h-18.7c-1.7 0-3.2 1.8-3.2 3.5 0 1.2 19.5 56.8 21.2 62.1-2.7 3.8-20.5 28.6-20.5 31.6 0 1.8 1.5 3.2 3.2 3.2h19.2c1.8-.1 3.5-1.1 4.5-2.6zm159.3-106.7c0-21-16.2-28-34.7-28h-39.7c-2.7 0-5.2 2-5.5 4.7l-16.2 102c-.2 2 1.3 4 3.2 4h20.5c2 0 3.5-1.5 4-3.2l4.5-29c1-7.2 13.2-4.7 18-4.7 28.4 0 45.9-17 45.9-45.8zm84.2 8.8h-19c-3.8 0-4 5.5-4.3 8.2-5.5-8.5-14-10-23.7-10-24.5 0-43.2 21.5-43.2 45.2 0 19.5 12.2 32.2 31.7 32.2 9.3 0 20.5-4.9 26.5-11.9-.3 1.5-1 4.7-1 6.2 0 2.3 1 4 3.2 4H484c2.7 0 5-2.9 5.5-5.7l10.2-64.3c.3-1.9-1.2-3.9-3.2-3.9zm47.5-33.3c0-2-1.5-3.5-3.2-3.5h-18.5c-1.5 0-3 1.2-3.2 2.7l-16.2 104-.3.5c0 1.8 1.5 3.5 3.5 3.5h16.5c2.5 0 5-2.9 5.2-5.7L544 191.2v-.3zm-90 51.8c-12.2 0-21.7 9.7-21.7 22 0 9.7 7 15 16.2 15 12 0 21.7-9.2 21.7-21.5.1-9.8-6.9-15.5-16.2-15.5z"/></symbol><symbol viewBox="0 0 448 512" id="trello" xmlns="http://www.w3.org/2000/svg"><path d="M392 32H56C25.1 32 0 57.1 0 88v336c0 30.9 25.1 56 56 56h336c30.9 0 56-25.1 56-56V88c0-30.9-25.1-56-56-56zM194.9 371.4c0 14.8-12 26.9-26.9 26.9H85.1c-14.8 0-26.9-12-26.9-26.9V117.1c0-14.8 12-26.9 26.9-26.9H168c14.8 0 26.9 12 26.9 26.9v254.3zm194.9-112c0 14.8-12 26.9-26.9 26.9H280c-14.8 0-26.9-12-26.9-26.9V117.1c0-14.8 12-26.9 26.9-26.9h82.9c14.8 0 26.9 12 26.9 26.9v142.3z"/></symbol><symbol viewBox="0 0 543.684 543.684" id="tw" xmlns="http://www.w3.org/2000/svg"><path d="M527.657 106.697a231.362 231.362 0 0 1-8.041 2.191c-16.384 4.137-17.89-1.322-6.028-13.366a109.306 109.306 0 0 0 14.082-17.607c9.137-14.217 1.212-20.417-14.333-13.776a224.853 224.853 0 0 1-16.897 6.432c-16.017 5.379-38.746-2.735-53.018-11.787-18.018-11.426-38.495-17.136-61.438-17.136-32.137 0-59.529 11.334-82.192 33.984-22.656 22.662-33.99 50.062-33.99 82.191 0 4.394.251 8.855.747 13.378.814 7.362-11.585 12.699-28.317 10.336-36.194-5.11-70.582-16.077-103.171-32.889-32.32-16.671-60.845-37.65-85.57-62.938-11.819-12.086-27.804-11.045-32.217 5.27-2.644 9.78-3.959 19.951-3.959 30.515 0 19.908 4.675 38.372 14.027 55.392 4.651 8.47 10.098 16.138 16.353 22.999 10.521 11.549 8.911 18.25-5.734 14.144-14.639-4.106-25.367-10.202-25.367-9.804v.722c0 28.048 8.807 52.693 26.432 73.911 10.857 13.072 23.47 23.17 37.834 30.282 15.147 7.503 22.203 11.688 13.733 12.784-5.11.661-10.251.991-15.422.991-3.5 0-7.172-.159-11.003-.483-6.059-.514-7.148 12.111 2.038 26.298 7.301 11.273 16.646 21.193 28.03 29.762 11.579 8.721 24.058 14.981 37.417 18.794 16.255 4.633 19.517 13.073 5.024 21.763-35.863 21.519-75.551 32.277-119.058 32.277-4.902 0-9.578-.11-14.045-.324-7.754-.373-2.552 6.456 12.417 14.296 46.775 24.499 97.43 36.738 151.972 36.738 41.237 0 79.964-6.529 116.176-19.596 36.199-13.066 67.136-30.576 92.791-52.516 25.655-21.94 47.779-47.173 66.365-75.711 18.581-28.537 32.424-58.33 41.543-89.376 9.106-31.053 13.666-62.167 13.666-93.342 0-2.809-.024-5.331-.067-7.552-.086-4.174 10.955-15.472 23.28-27.032a242.397 242.397 0 0 0 15.937-16.444c11.179-12.688 6.228-18.502-9.997-13.771z"/></symbol><symbol viewBox="0 0 576 512" id="visa" xmlns="http://www.w3.org/2000/svg"><path d="M470.1 231.3s7.6 37.2 9.3 45H446c3.3-8.9 16-43.5 16-43.5-.2.3 3.3-9.1 5.3-14.9l2.8 13.4zM576 80v352c0 26.5-21.5 48-48 48H48c-26.5 0-48-21.5-48-48V80c0-26.5 21.5-48 48-48h480c26.5 0 48 21.5 48 48zM152.5 331.2L215.7 176h-42.5l-39.3 106-4.3-21.5-14-71.4c-2.3-9.9-9.4-12.7-18.2-13.1H32.7l-.7 3.1c15.8 4 29.9 9.8 42.2 17.1l35.8 135h42.5zm94.4.2L272.1 176h-40.2l-25.1 155.4h40.1zm139.9-50.8c.2-17.7-10.6-31.2-33.7-42.3-14.1-7.1-22.7-11.9-22.7-19.2.2-6.6 7.3-13.4 23.1-13.4 13.1-.3 22.7 2.8 29.9 5.9l3.6 1.7 5.5-33.6c-7.9-3.1-20.5-6.6-36-6.6-39.7 0-67.6 21.2-67.8 51.4-.3 22.3 20 34.7 35.2 42.2 15.5 7.6 20.8 12.6 20.8 19.3-.2 10.4-12.6 15.2-24.1 15.2-16 0-24.6-2.5-37.7-8.3l-5.3-2.5-5.6 34.9c9.4 4.3 26.8 8.1 44.8 8.3 42.2.1 69.7-20.8 70-53zM528 331.4L495.6 176h-31.1c-9.6 0-16.9 2.8-21 12.9l-59.7 142.5H426s6.9-19.2 8.4-23.3H486c1.2 5.5 4.8 23.3 4.8 23.3H528z"/></symbol><symbol viewBox="0 0 18.875 18.875" id="youtube" xmlns="http://www.w3.org/2000/svg"><path d="M17.905 10.877v5.564c0 .348-.073.665-.221.956a2.472 2.472 0 0 1-.603.769 2.895 2.895 0 0 1-.88.519c-.335.126-.695.19-1.083.19H3.745c-.379 0-.736-.064-1.07-.19a2.876 2.876 0 0 1-.881-.519 2.551 2.551 0 0 1-.604-.769 2.084 2.084 0 0 1-.22-.956v-5.564c0-.33.073-.645.221-.944.148-.3.352-.559.604-.773.253-.215.547-.39.881-.52s.691-.196 1.07-.196h11.373a3.063 3.063 0 0 1 1.963.716c.255.215.455.474.603.773s.22.614.22.944zM4.507 17.062v-5.869h1.395v-.887H2.136v.862h1.207v5.894h1.164zm.569-13.653L3.517 0h1.357l.776 2.548L6.423 0h1.355l-1.46 3.409v3.97H5.076v-3.97zm3.665 8.646H7.576v3.133c0 .227.002.403.011.524.008.124-.009.202-.051.235-.035.135-.133.234-.3.298-.161.062-.286-.026-.373-.273-.018-.033-.02-.116-.011-.246.008-.132.011-.303.011-.515l-.024-3.156H5.673l.027 3.107c0 .244-.006.448-.014.613s-.006.289.014.374l.049.438a.49.49 0 0 0 .242.374.879.879 0 0 0 .473.128c.184 0 .362-.031.534-.091.175-.06.333-.141.481-.245.147-.105.256-.219.322-.337l-.023.62.963.025v-5.006zM7.675 3.93c0-.465.045-.851.127-1.152.104-.314.267-.538.496-.674.229-.169.52-.254.875-.254.312 0 .572.052.786.152.21.085.384.232.519.444.102.154.179.325.229.521.048.211.075.494.075.85v1.329c0 .483-.027.829-.075 1.042-.02.193-.102.409-.256.646-.151.21-.315.35-.492.418a1.651 1.651 0 0 1-.724.151c-.276 0-.533-.042-.759-.127a.785.785 0 0 1-.469-.366 1.78 1.78 0 0 1-.256-.572c-.049-.23-.076-.573-.076-1.039V3.93zm1.04 2.066c0 .135.051.256.153.362a.51.51 0 0 0 .728.005.486.486 0 0 0 .157-.367V3.245a.52.52 0 0 0-.157-.385.5.5 0 0 0-.361-.16.493.493 0 0 0-.36.16.523.523 0 0 0-.16.385v2.751zm3.79 9.634v-2.599c0-.498-.176-.854-.53-1.064a.817.817 0 0 0-.407-.102c-.28 0-.6.131-.963.393v-1.952H9.439v6.706l.964-.025.075-.418c.313.263.596.423.843.482.251.058.46.035.634-.071.174-.104.309-.277.405-.52.096-.24.145-.519.145-.83zM11.1 12.512c.135 0 .253.04.36.121.105.08.158.171.158.271v2.942c0 .101-.053.188-.158.265a.606.606 0 0 1-.36.115.613.613 0 0 1-.364-.115c-.104-.076-.155-.164-.155-.265v-2.942c0-.101.052-.191.155-.271a.586.586 0 0 1 .364-.121zm.543-5.653a.742.742 0 0 1-.062-.21 1.575 1.575 0 0 0-.04-.209 1.94 1.94 0 0 1-.024-.344V2.055h1.09v4.03c0 .103.037.189.113.267a.422.422 0 0 0 .305.114c.119 0 .22-.039.304-.114a.348.348 0 0 0 .13-.267v-4.03h1.011v5.172h-1.29l.023-.418c-.119.168-.231.3-.342.392a.823.823 0 0 1-.444.127.86.86 0 0 1-.482-.127.965.965 0 0 1-.292-.342zm4.538 8.443h-.873v.569c0 .136-.049.24-.146.316a.54.54 0 0 1-.347.113h-.181a.492.492 0 0 1-.334-.113.394.394 0 0 1-.135-.316v-1.205h2.016v-.697c0-.261-.004-.513-.013-.753a2.783 2.783 0 0 0-.062-.563.83.83 0 0 0-.312-.553 1.426 1.426 0 0 0-.607-.284 1.927 1.927 0 0 0-.711-.026c-.24.034-.447.113-.628.24-.226.152-.39.36-.493.623-.102.26-.152.624-.152 1.09v1.56c0 .657.175 1.128.521 1.406.32.261.657.393 1.012.393h.104c.398-.024.748-.194 1.053-.507.228-.228.342-.529.342-.899-.013-.12-.027-.252-.054-.394zm-.9-1.486h-1.115l.025-.619c0-.136.051-.246.152-.337a.539.539 0 0 1 .369-.134h.051c.15 0 .279.043.386.127a.423.423 0 0 1 .159.344l-.027.619z"/></symbol></svg>